<?xml version="1.0" standalone="no"?>
<!DOCTYPE svg PUBLIC "-//W3C//DTD SVG 20010904//EN"
 "http://www.w3.org/TR/2001/REC-SVG-20010904/DTD/svg10.dtd">
<svg version="1.0" xmlns="http://www.w3.org/2000/svg"
 width="512.000000pt" height="512.000000pt" viewBox="0 0 512.000000 512.000000"
 preserveAspectRatio="xMidYMid meet">
<metadata>
Created by potrace 1.11, written by Peter Selinger 2001-2013
</metadata>
<g transform="translate(0.000000,512.000000) scale(0.100000,-0.100000)"
fill="#000000" stroke="none">
<path d="M614 4689 c-77 -10 -127 -46 -166 -120 l-22 -42 0 -1493 c-1 -821 1
-1502 4 -1513 4 -17 81 55 428 402 l423 424 1072 0 c590 0 1088 3 1108 7 56
10 117 60 143 115 l22 49 -1 1008 0 1009 -22 40 c-27 51 -58 80 -108 101 -37
16 -146 17 -1435 18 -767 1 -1418 -2 -1446 -5z"/>
<path d="M4054 2893 c1 -522 0 -954 -2 -960 -3 -10 -290 -13 -1389 -13 l-1385
0 4 -247 c3 -237 4 -250 26 -284 24 -39 69 -77 115 -97 21 -9 315 -12 1222
-12 l1195 0 425 -425 c234 -234 425 -422 426 -418 0 5 1 735 1 1623 l1 1615
-21 41 c-27 52 -81 100 -129 113 -21 6 -137 11 -264 11 l-226 0 1 -947z"/>
</g>
</svg>
